<svg width="147" height="30" viewBox="0 0 147 30" fill="none" xmlns="http://www.w3.org/2000/svg">
<path d="M16.5391 19.0771L18.7698 21.3078L22.6929 17.3847C23.3083 16.7693 23.6929 15.9232 23.6929 15.0001C23.6929 14.077 23.3083 13.3078 22.6929 12.6155L18.7698 8.69238L16.5391 10.9232L20.616 15.0001V15.0001L16.5391 19.0771Z" fill="#FF9750"/>
<path d="M25.0771 19.4616L19.6155 24.9232C18.3847 26.154 16.6924 26.8463 15.0001 26.8463C13.2308 26.8463 11.6154 26.154 10.3847 24.9232L5.07695 19.6155C3.84617 18.3847 3.15386 16.6924 3.15386 15.0001C3.15386 13.3078 3.84617 11.6154 5.07695 10.3847L10.3847 5.07695C11.6154 3.84617 13.2308 3.15386 15.0001 3.15386C16.7693 3.15386 18.3847 3.84617 19.6155 5.07695L25.0001 10.4616L27.2309 8.23081L21.8463 2.84617C20.0001 1.00001 17.5386 0 15.0001 0C12.4616 0 10.0001 1.00001 8.15389 2.84617L2.84617 8.15389C1.00001 10.0001 0 12.4616 0 15.0001C0 17.6155 1.00001 20.0001 2.84617 21.8463L8.15389 27.154C10.0001 29.0002 12.4616 30.0002 15.0001 30.0002C17.6155 30.0002 20.077 29.0002 21.8463 27.154L27.3078 21.6924L25.0771 19.4616Z" fill="#FF9750"/>
<path d="M42.077 20.308C39.2308 20.308 37 18.0003 37 15.0003C37 12.0003 39.2308 9.69255 42.077 9.69255C43.6154 9.69255 44.6924 10.3079 45.6924 11.0772L47.1539 8.84639C45.6924 7.69254 43.9231 7.07715 42.077 7.07715C39.8462 7.07715 37.8462 7.92331 36.3077 9.38485C34.8462 10.8464 34 12.8464 34 15.0003C34 17.1541 34.8462 19.1541 36.3077 20.6157C37.7693 22.0772 39.8462 22.9234 42.077 22.9234C44.077 22.9234 45.9231 22.308 47.3847 21.0772L45.8462 18.8464C44.6924 19.7695 43.3847 20.308 42.077 20.308Z" fill="#000000"/>
<path fill-rule="evenodd" clip-rule="evenodd" d="M48.4609 17.0003C48.4609 13.6156 51.0763 11.0771 54.6148 11.0771C58.1533 11.0771 60.7687 13.6156 60.7687 17.0003C60.7687 20.3849 58.1533 22.9234 54.6148 22.9234C51.0763 22.9234 48.4609 20.3849 48.4609 17.0003ZM51.308 16.9233C51.308 18.8464 52.7696 20.3079 54.6157 20.3079C56.4619 20.3079 57.9235 18.9233 57.9235 16.9233C57.9235 15.0002 56.4619 13.5386 54.6157 13.5386C52.7696 13.5386 51.308 15.0771 51.308 16.9233Z" fill="#000000"/>
<path d="M68.6148 11.0771C67.461 11.0771 66.2302 11.6156 65.461 12.5387L65.384 12.6925V11.3079H62.4609V22.6157H65.384V15.231V15.231C65.8456 14.4618 66.8456 13.6156 67.9225 13.6156C69.3071 13.6156 70.2302 14.5387 70.2302 15.9233V22.6157H73.1533V15.6156C73.0764 12.9233 71.2302 11.0771 68.6148 11.0771Z" fill="#000000"/>
<path d="M79.3849 19.2312L76.7695 11.3081H73.7695L77.7696 22.6159H81.0003L85.0004 11.3081H82.0003L79.3849 19.2312Z" fill="#000000"/>
<path fill-rule="evenodd" clip-rule="evenodd" d="M85.3086 17.0005C85.3086 13.6928 87.8471 11.0774 91.1548 11.0774C94.3086 11.0774 96.7702 13.5389 96.7702 16.7697C96.7702 17.1543 96.7702 17.539 96.6933 17.8467H88.0778V17.9236C88.3855 19.539 89.6163 20.6159 91.3086 20.6159C92.3856 20.6159 93.4625 20.1544 94.3856 19.2313L96.0779 20.9236C94.8471 22.2313 93.2317 22.9236 91.3086 22.9236C87.8471 22.9236 85.3086 20.4621 85.3086 17.0005ZM91.0775 13.385C89.6929 13.385 88.4621 14.3081 88.0775 15.7696V15.8465H93.9237V15.7696C93.539 14.3081 92.4621 13.385 91.0775 13.385Z" fill="#000000"/>
<path fill-rule="evenodd" clip-rule="evenodd" d="M115.154 22.6159L120.616 7.30811V7.38503H124L129.462 22.6928H126.308L125.154 19.2312V19.1543H119.462L118.308 22.6159H115.154ZM122.309 10.385L120.232 16.6927H124.386L122.309 10.385Z" fill="#000000"/>
<rect x="144.076" y="7.30811" width="2.92309" height="15.3078" fill="#000000"/>
<path d="M110.538 18.7696V13.9234H113.231V11.3849H110.538V8.69263H107.615V18.9235C107.615 21.5389 109 22.9235 111.846 22.9235C112.384 22.9235 112.923 22.8466 113.384 22.7696V20.385C113.077 20.385 112.692 20.4619 112.384 20.4619C111.077 20.385 110.538 19.9235 110.538 18.7696Z" fill="#000000"/>
<path fill-rule="evenodd" clip-rule="evenodd" d="M130.615 7.30811H136.846C139.769 7.30811 142.077 9.69273 142.077 12.5389C142.077 15.3851 139.769 17.7697 136.846 17.7697H133.538V22.6159H130.615V7.30811ZM133.539 14.8466H136.847C138.155 14.8466 139.155 13.8466 139.155 12.5389C139.155 11.2312 138.078 10.2312 136.847 10.2312H133.539V14.8466Z" fill="#000000"/>
<path d="M101.616 12.4618L101.54 12.5387V11.3079H98.6934V22.6157H101.54V15.8464C102.078 14.6926 103.232 14.0002 104.54 14.0002C104.847 14.0002 105.155 14.0772 105.463 14.1541V11.0771C105.386 11.0771 105.232 11.0771 105.155 11.0771C103.77 11.0771 102.54 11.5387 101.616 12.4618Z" fill="#000000"/>
<path d="M16.5391 19.0771L18.7698 21.3078L22.6929 17.3847C23.3083 16.7693 23.6929 15.9232 23.6929 15.0001C23.6929 14.077 23.3083 13.3078 22.6929 12.6155L18.7698 8.69238L16.5391 10.9232L20.616 15.0001V15.0001L16.5391 19.0771Z" fill="#FF9750"/>
<path d="M13.3844 10.9232L11.1536 8.69238L7.23047 12.6155C6.61509 13.2309 6.23047 14.077 6.23047 15.0001C6.23047 15.9232 6.61509 16.7693 7.23047 17.3847L11.1536 21.3078L13.3844 19.0771L9.30741 15.0001V15.0001L13.3844 10.9232Z" fill="#FF9750"/>
</svg>
