<?xml version="1.0" encoding="UTF-8"?>
<svg id="logomark" xmlns="http://www.w3.org/2000/svg" viewBox="0 0 1080 1080">
  <defs>
    <style>
      .cls-1 {
        fill: #f7fdfa;
      }
    </style>
  </defs>
  <g id="new">
    <path class="cls-1" d="M473.81,256.5l118.77,42.31c48.38,16.58,74.25,33.38,89.39,63.65,6.86,13.71,14.54,34.18,11.01,57.73,0,0,72.25,25.53,91.18,33.1,22-78.17,12.22-105.94-2.33-146.74-20.13-56.35-67.44-92.82-141.5-118.19l-94.62-34.06c-105.08-40.31-122.93-42.39-174.94-34.96-52.99,7.57-68.6,21.67-97.56,46.33-44.25,37.68-45.41,68.13-82.95,168.42l-40.42,112.9c-44.27,116.65-51.36,155.28-31.69,211.78,13.77,39.5,32.23,74.29,73,98.69,7.22,4.34,38.94,19.47,47.03,23.35,0,0,59.46,22.01,72.62,26.53l91.13,32c72.92,25.87,73.82,32.97,120.65,24.79,57.15-9.99,49.22-10.83,69.72-21.86,47.31-25.47,63.38-50.36,74.92-75.52,20.21-44.06,16.48-38.94,27.02-68.32l31.17-85.32c-54.46-19.9-93.25-32.01-93.25-32.01,0,0-16.75,51.5-33.42,91.71-9.72,23.45-15.14,30.28-26.49,41.63-18.92,18.92-37.1,22.48-37.85,22.71-23.41,6.8-49.55,5.32-87.05-7.57l-71.91-26.49-75.7-26.49c-26.54-8.52-42.88-14.49-61.84-35.82-16.49-18.55-23.24-43.12-22.52-67.9.71-24.73,13.77-53.7,28.06-93.65l46.75-128c20.56-56.28,15.46-70.49,66.54-103.27,31.37-20.14,60.32-14.17,117.1,8.54Z"/>
    <path class="cls-1" d="M390.47,865.26s-77.99-27.42-88.96-32.5c-22.71,68.13-20.25,66.68-6.8,131.27l130.08-1.11c-54.36-59.71-35.61-89.43-34.32-97.66Z"/>
    <path class="cls-1" d="M933.8,831.23c48.73-122.12,44.26-167.33,24.11-223.71-14.03-39.3-50.57-70.95-91.41-94.1-21.62-12.26-57.71-22.89-70.82-27.39l-124.9-45.41c-8.43-2.88-42.19-13.05-42.2-13.08-23.11-4.33-36.48-7.15-64.06-4.88-.03.02-17.18,1.96-47.41,11.49-10.34,3.26-47.63,21.83-62.8,36.73-30.53,29.97-41.86,52.61-54.46,87.11-23.21,63.54-40.46,110.74-40.46,110.74,44.82,16.97,92.59,33.82,92.59,33.82,0,0,13.93-38.12,36.48-99.85,6.84-18.71,16.23-33.17,39.5-47.83,22.03-13.88,42.98-21.65,74.7-11.29,53.31,17.42,59.66,19.74,80.54,27.37,25.42,9.29,89.79,32.41,89.79,32.41,14.43,4.96,22.71,7.57,37.85,15.14,8.28,4.44,16.37,10.15,22.71,15.14,13.39,10.56,24.99,26.22,28.34,39.63,7.57,30.28,6.36,55.82-22.48,123.48,0,0-45.72,127.3-59.69,163.39l-5.57,1.03,108.28-.54c1.06-2.74,51.38-129.38,51.38-129.38Z"/>
  </g>
</svg>