<svg width="100" height="100" viewBox="0 0 100 100" fill="none" xmlns="http://www.w3.org/2000/svg">
<mask id="mask0_9_44" style="mask-type:luminance" maskUnits="userSpaceOnUse" x="0" y="0" width="100" height="100">
<path d="M100 0H0V100H100V0Z" fill="white"/>
</mask>
<g mask="url(#mask0_9_44)">
<mask id="mask1_9_44" style="mask-type:luminance" maskUnits="userSpaceOnUse" x="16" y="16" width="68" height="68">
<path d="M83.6234 16.647H16.3818V83.2884H83.6234V16.647Z" fill="white"/>
</mask>
<g mask="url(#mask1_9_44)">
<path d="M42.172 40.9043V34.5734C42.172 34.0402 42.3721 33.6402 42.8384 33.3738L55.5672 26.0434C57.2999 25.0438 59.3659 24.5775 61.4981 24.5775C69.4949 24.5775 74.56 30.7753 74.56 37.3725C74.56 37.8389 74.56 38.3721 74.4932 38.9053L61.2981 31.1748C60.4985 30.7084 59.6985 30.7084 58.8989 31.1748L42.172 40.9043ZM71.8941 65.5618V50.4339C71.8941 49.5006 71.4939 48.8343 70.6945 48.3679L53.9675 38.6384L59.4321 35.506C59.8985 35.2398 60.2985 35.2398 60.7649 35.506L73.4936 42.8366C77.1592 44.9693 79.6246 49.5006 79.6246 53.8988C79.6246 58.9634 76.626 63.6284 71.8941 65.5613V65.5618ZM38.2402 52.2336L32.7756 49.035C32.3093 48.7686 32.1092 48.3686 32.1092 47.8354V33.1745C32.1092 26.0439 37.5738 20.6456 44.9711 20.6456C47.7704 20.6456 50.3689 21.5789 52.5686 23.2447L39.4403 30.8423C38.6409 31.3085 38.2409 31.9749 38.2409 32.9081V52.2342L38.2402 52.2336ZM50.0025 59.0309L42.172 54.6327V45.3032L50.0025 40.905L57.8325 45.3032V54.6327L50.0025 59.0309ZM55.0339 79.2902C52.2347 79.2902 49.6363 78.357 47.4366 76.691L60.5648 69.0936C61.3643 68.6274 61.7643 67.961 61.7643 67.0277V47.7017L67.2959 50.9003C67.7621 51.1666 67.9622 51.5666 67.9622 52.0998V66.7607C67.9622 73.8913 62.4307 79.2896 55.0339 79.2896V79.2902ZM39.2398 64.4292L26.5109 57.0986C22.8453 54.9659 20.3799 50.4346 20.3799 46.0364C20.3799 40.905 23.4454 36.3068 28.1767 34.3741V49.5682C28.1767 50.5014 28.5768 51.1678 29.3763 51.6341L46.037 61.2968L40.5724 64.4292C40.1061 64.6954 39.706 64.6954 39.2398 64.4292ZM38.5071 75.3584C30.9766 75.3584 25.4452 69.6938 25.4452 62.6964C25.4452 62.1632 25.512 61.63 25.5782 61.0968L38.7066 68.6942C39.506 69.1606 40.3061 69.1606 41.1056 68.6942L57.8325 59.0316V65.3624C57.8325 65.8957 57.6325 66.2957 57.1661 66.562L44.4374 73.8925C42.7046 74.892 40.6386 75.3584 38.5064 75.3584H38.5071ZM55.0339 83.2884C63.0977 83.2884 69.8281 77.5574 71.3614 69.96C78.8252 68.0273 83.6234 61.0299 83.6234 53.8995C83.6234 49.2343 81.6243 44.7031 78.0256 41.4375C78.3588 40.0379 78.5588 38.6384 78.5588 37.2395C78.5588 27.7099 70.8282 20.5788 61.8981 20.5788C60.0992 20.5788 58.3664 20.845 56.6336 21.4452C53.6343 18.5128 49.5025 16.647 44.9711 16.647C36.9075 16.647 30.1771 22.3778 28.6438 29.9752C21.18 31.9079 16.3818 38.9053 16.3818 46.0357C16.3818 50.7009 18.3809 55.2321 21.9796 58.4977C21.6464 59.8973 21.4464 61.2968 21.4464 62.6957C21.4464 72.2253 29.177 79.3564 38.107 79.3564C39.906 79.3564 41.6388 79.0902 43.3716 78.49C46.3702 81.4224 50.502 83.2884 55.0339 83.2884Z" fill="white"/>
</g>
</g>
</svg>
