<?xml version="1.0" standalone="no"?>
<!DOCTYPE svg PUBLIC "-//W3C//DTD SVG 20010904//EN"
 "http://www.w3.org/TR/2001/REC-SVG-20010904/DTD/svg10.dtd">
<svg version="1.0" xmlns="http://www.w3.org/2000/svg"
 width="199.000000pt" height="199.000000pt" viewBox="0 0 199.000000 199.000000"
 preserveAspectRatio="xMidYMid meet">

<g transform="translate(0.000000,199.000000) scale(0.100000,-0.100000)"
fill="#000000" stroke="none">
<path d="M0 995 l0 -995 995 0 995 0 0 995 0 995 -995 0 -995 0 0 -995z m1216
825 c289 -74 528 -313 605 -605 30 -112 30 -298 0 -410 -45 -171 -153 -340
-284 -444 -81 -65 -221 -136 -322 -162 -112 -30 -298 -30 -410 0 -273 72 -497
276 -586 533 -115 334 -6 711 269 930 207 164 475 222 728 158z"/>
<path d="M845 1755 c-142 -30 -278 -109 -383 -219 -137 -145 -201 -293 -210
-486 -6 -154 10 -250 50 -296 71 -81 218 -162 350 -194 45 -11 96 -20 112 -20
27 0 25 3 -30 36 -243 145 -326 420 -204 671 127 259 431 370 685 249 173 -82
281 -242 301 -446 7 -69 8 -72 20 -47 47 89 68 310 43 456 -10 62 -15 70 -70
122 -70 69 -228 150 -336 173 -86 19 -244 20 -328 1z"/>
<path d="M865 1453 c-122 -44 -223 -135 -278 -250 -30 -64 -32 -74 -32 -183 0
-109 2 -118 32 -181 59 -121 152 -202 274 -240 79 -25 104 -24 55 2 -53 28
-120 98 -149 156 -117 231 15 492 276 544 125 25 276 -36 358 -145 39 -53 37
-27 -6 62 -44 93 -117 167 -209 212 -63 31 -79 35 -170 38 -77 2 -113 -2 -151
-15z"/>
<path d="M1666 1349 c12 -107 -22 -284 -77 -407 -56 -124 -198 -287 -314 -361
-50 -32 -188 -79 -300 -102 -78 -16 -234 -16 -310 0 -81 18 -200 64 -259 101
l-47 30 18 -31 c29 -51 142 -161 213 -207 139 -90 285 -128 464 -119 318 15
578 214 682 522 32 97 44 276 24 377 -13 71 -62 204 -85 234 -14 17 -14 14 -9
-37z"/>
<path d="M990 1213 c-65 -23 -152 -113 -174 -181 -52 -155 27 -328 174 -383
71 -27 184 -23 245 8 134 70 198 232 148 379 -23 67 -110 154 -177 177 -61 21
-156 21 -216 0z"/>
</g>
</svg>
