<?xml version="1.0" standalone="no"?>
<!DOCTYPE svg PUBLIC "-//W3C//DTD SVG 20010904//EN"
 "http://www.w3.org/TR/2001/REC-SVG-20010904/DTD/svg10.dtd">
<svg version="1.0" xmlns="http://www.w3.org/2000/svg"
 width="200.000000pt" height="200.000000pt" viewBox="0 0 200.000000 200.000000"
 preserveAspectRatio="xMidYMid meet">

<g transform="translate(0.000000,200.000000) scale(0.100000,-0.100000)"
fill="#FFFFFF" stroke="none">
<path d="M90 1146 l-85 -42 -3 -52 -3 -51 83 -42 c46 -23 86 -47 90 -53 4 -6
8 -28 8 -48 0 -24 5 -38 13 -38 6 1 48 21 92 45 l80 44 3 55 3 56 -86 42 -85
42 0 43 c0 28 -4 43 -12 42 -7 0 -51 -19 -98 -43z m80 -57 l0 -60 -60 33 -60
33 52 27 c29 15 56 27 61 28 4 0 7 -27 7 -61z m5 -121 c0 -27 4 -27 -80 14
-57 29 -65 36 -65 61 l0 29 73 -41 c57 -32 72 -45 72 -63z m88 76 c70 -35 87
-52 87 -85 0 -23 -9 -32 -65 -63 -36 -20 -70 -36 -75 -36 -6 0 -10 44 -10 105
0 58 2 105 5 105 3 0 29 -12 58 -26z"/>
<path d="M1750 1114 c0 -40 -2 -45 -15 -34 -8 6 -31 12 -52 12 -28 0 -43 -7
-60 -27 -63 -72 14 -183 98 -141 16 8 29 10 29 5 0 -5 7 -9 15 -9 13 0 15 20
15 120 0 100 -2 120 -15 120 -11 0 -15 -12 -15 -46z m-13 -80 c15 -24 15 -29
2 -53 -29 -52 -99 -35 -99 24 0 57 65 77 97 29z"/>
<path d="M492 1089 c-51 -19 -48 -80 5 -94 34 -8 55 -24 47 -36 -7 -12 -48
-11 -60 1 -5 5 -15 6 -24 0 -24 -15 12 -44 54 -44 44 0 66 19 66 55 0 23 -6
32 -27 40 -47 19 -55 24 -51 34 2 6 17 10 33 11 45 1 48 3 36 18 -15 18 -52
25 -79 15z"/>
<path d="M674 1092 c-35 -5 -68 -48 -68 -88 0 -74 95 -117 146 -66 20 19 20
22 4 28 -9 4 -22 2 -29 -5 -28 -28 -87 2 -87 46 0 40 60 69 87 42 7 -7 19 -9
29 -5 16 6 16 8 0 25 -18 20 -48 28 -82 23z"/>
<path d="M955 1086 c-29 -13 -55 -51 -55 -82 0 -29 30 -71 59 -84 25 -10 35
-9 60 3 17 9 31 11 31 6 0 -5 8 -9 18 -9 15 0 17 9 14 85 -3 65 -7 85 -18 85
-8 0 -14 -4 -14 -9 0 -6 -12 -3 -27 5 -33 17 -30 17 -68 0z m82 -52 c15 -24
15 -29 2 -53 -28 -49 -99 -32 -99 24 0 55 67 75 97 29z"/>
<path d="M1204 1089 c-10 -4 -31 -4 -46 -2 l-28 6 0 -122 c0 -114 1 -121 20
-121 17 0 20 7 20 41 0 37 2 40 23 33 39 -14 71 -7 94 21 57 66 -5 173 -83
144z m62 -58 c24 -47 -14 -93 -63 -75 -22 7 -29 16 -31 44 -3 24 2 38 15 47
26 20 66 12 79 -16z"/>
<path d="M1403 1093 c-32 -6 -63 -50 -63 -89 0 -50 36 -86 88 -88 49 -1 89 27
62 44 -9 6 -19 5 -24 0 -22 -22 -86 -5 -86 22 0 4 29 8 65 8 65 0 65 0 65 28
0 47 -54 85 -107 75z m63 -50 c17 -17 16 -18 -30 -21 -55 -4 -64 1 -46 23 17
20 54 19 76 -2z"/>
<path d="M1883 1093 c-32 -6 -63 -50 -63 -87 0 -65 56 -106 117 -85 33 11 63
51 63 84 0 32 -30 73 -61 84 -18 6 -32 10 -33 10 -1 -1 -11 -4 -23 -6z m61
-49 c34 -34 9 -94 -39 -94 -24 0 -55 33 -55 57 0 20 38 53 59 53 11 0 27 -7
35 -16z"/>
<path d="M800 1005 c0 -78 2 -85 20 -85 16 0 19 8 22 58 3 48 7 59 26 67 12 5
22 18 22 27 0 21 -20 24 -38 6 -9 -9 -12 -9 -12 0 0 7 -9 12 -20 12 -18 0 -20
-7 -20 -85z"/>
</g>
</svg>
