<svg width="64" height="65" fill="none" xmlns="http://www.w3.org/2000/svg">
  <path d="M41.1 45.7c0 2-.8 3.5-2.5 4.6-1.6 1-3.8 1.6-6.5 1.6-3.4 0-6-.8-8-2.3-2-1.6-3-3.6-3.2-6.1l-16.3-.4c0 4.1 1.2 7.8 3.6 11.1A24 24 0 0 0 18 62c2.2 1 4.5 1.7 7 2.2l.4.1H0V.2h24.9A25.4 25.4 0 0 0 9.3 9.5C7.1 12.5 6 15.9 6 19.7c0 4.2.9 7.6 2.6 10.1 1.7 2.5 4 4.4 6.8 5.7 2.8 1.3 6.3 2.3 10.6 3.2 4.4.9 7.5 1.6 9.5 2.2 1.9.5 3.3 1.1 4.3 1.9.8.6 1.3 1.6 1.3 2.9Z" fill="#0BB07D"/>
  <path d="M25.3 64.2h-.6l.1-.1.5.1Z" fill="#33333D"/>
  <path d="M64 64.2H38.1a28 28 0 0 0 7.1-2.2 23 23 0 0 0 9.4-7.6c2.2-3.2 3.4-6.8 3.4-10.8a17 17 0 0 0-2.6-9.8c-1.7-2.4-4-4.3-6.9-5.5a54.4 54.4 0 0 0-10.8-3.1c-4.3-.8-7.3-1.5-9.2-2.1a12 12 0 0 1-4.2-1.8c-.9-.7-1.3-1.7-1.3-3 0-1.9.7-3.3 2.2-4.3 1.5-1 3.4-1.5 5.8-1.5 2.7 0 4.9.7 6.5 2.1a7.8 7.8 0 0 1 2.7 5.4h16.4c0-3.8-1.1-7.3-3.3-10.5a23 23 0 0 0-9.1-7.4c-2.1-1-4.4-1.7-6.8-2.1H64v64.2Z" fill="#fff"/>
</svg>
