<?xml version="1.0" encoding="UTF-8"?>
<svg version="1.1" xmlns="http://www.w3.org/2000/svg" width="192" height="192">
<path d="M0 0 C1.51546921 -0.03495575 1.51546921 -0.03495575 3.06155396 -0.07061768 C4.93117458 -0.11457535 6.80049072 -0.17733731 8.66867065 -0.26287842 C12.888336 -0.33830952 14.9010828 -0.16546578 18.52099609 2.18261719 C21.01814523 6.07860006 21.0059983 9.16387212 20.77636719 13.62695312 C20.72933178 15.42771336 20.68316332 17.22849638 20.63769531 19.02929688 C20.60458252 20.01269043 20.57146973 20.99608398 20.53735352 22.00927734 C20.40762035 26.63915182 20.40255463 31.26771613 20.38684082 35.89916992 C20.36424912 41.01940557 20.30306622 46.1389039 20.24072266 51.25878906 C20.21209003 53.90812984 20.18938153 56.55667239 20.17724609 59.20605469 C20.15594124 63.07596264 20.10946028 66.94484908 20.05761719 70.81445312 C20.05638855 71.99974609 20.05515991 73.18503906 20.05389404 74.40625 C20.03417542 75.50259766 20.01445679 76.59894531 19.99414062 77.72851562 C19.98081696 79.17025146 19.98081696 79.17025146 19.96722412 80.64111328 C19.29766756 83.92881473 18.04227281 85.12459734 15.44824219 87.18945312 C12.69824219 87.87695312 12.69824219 87.87695312 9.44824219 87.18945312 C6.41669097 85.25041798 3.99087082 82.72047158 1.44824219 80.18945312 C0.84608887 79.59422852 0.24393555 78.99900391 -0.37646484 78.38574219 C-4.79594149 74.01426855 -9.18404717 69.61261322 -13.55175781 65.18945312 C-17.36390827 66.75588637 -19.69912954 69.14946127 -22.54394531 72.09179688 C-23.5060616 73.07433949 -24.46830519 74.05675748 -25.43066406 75.0390625 C-26.92957444 76.58136626 -28.4259042 78.12606866 -29.91943359 79.67358398 C-31.37099665 81.17375597 -32.83191863 82.66433068 -34.29394531 84.15429688 C-35.15874512 85.04753662 -36.02354492 85.94077637 -36.91455078 86.86108398 C-41.69551494 91.08215926 -45.98193181 92.79242401 -52.25488281 92.52929688 C-59.26641631 91.4918761 -63.77659503 87.58037127 -68.14160156 82.20117188 C-71.46707095 77.4570812 -72.14102461 72.88569883 -71.55175781 67.18945312 C-68.43495185 58.78352189 -62.0992753 53.28596584 -55.80175781 47.18945312 C-54.71098823 46.11878093 -53.6211358 45.04717354 -52.53222656 43.97460938 C-49.88256549 41.36868228 -47.22068975 38.77565708 -44.55175781 36.18945312 C-46.05888083 32.6390724 -48.12341873 30.39831926 -50.86816406 27.71289062 C-51.71443359 26.87757812 -52.56070313 26.04226562 -53.43261719 25.18164062 C-54.31755859 24.31796875 -55.2025 23.45429687 -56.11425781 22.56445312 C-57.86773164 20.84531128 -59.61914357 19.124063 -61.36816406 17.40039062 C-62.14619385 16.64032715 -62.92422363 15.88026367 -63.72583008 15.09716797 C-66.03461542 12.68496732 -66.50097538 11.65665147 -66.86425781 8.31445312 C-66.55175781 5.18945312 -66.55175781 5.18945312 -64.8600769 3.02825928 C-62.09451125 0.82521068 -60.80228767 0.67732415 -57.30615234 0.64355469 C-56.25630157 0.62383606 -55.20645081 0.60411743 -54.12478638 0.58380127 C-52.42187943 0.58195831 -52.42187943 0.58195831 -50.68457031 0.58007812 C-49.49942841 0.56354187 -48.3142865 0.54700562 -47.0932312 0.52996826 C-43.28769028 0.48139472 -39.48254197 0.46017602 -35.67675781 0.43945312 C-33.18324759 0.41127604 -30.68975652 0.3813462 -28.19628906 0.34960938 C-23.30846748 0.29052502 -18.42134392 0.25529267 -13.53320312 0.23828125 C-9.01846322 0.21989 -4.51252062 0.14097875 0 0 Z " fill="#91B33E" transform="translate(118.5517578125,52.810546875)"/>
<path d="M0 0 C0.11214844 0.60585938 0.22429688 1.21171875 0.33984375 1.8359375 C2.20224852 9.74811463 6.29742725 14.37317299 12 20 C12.66 20.66 13.32 21.32 14 22 C13.5063964 26.69778531 10.08519731 29.07667519 6.8125 32.125 C-2.05322442 40.67706428 -8.20774707 49.39398444 -8.4375 62.125 C-8.23549216 73.5833335 -4.31177873 81.62875099 3.60546875 89.80859375 C7.15388966 93.05600669 10.78395608 95.68994338 15 98 C15.89912109 98.50853516 15.89912109 98.50853516 16.81640625 99.02734375 C25.0953996 102.90756309 35.77692181 102.22680224 44.1875 99.1875 C51.29099467 95.82722153 56.5320876 90.5151174 62 85 C62.76183594 84.25105469 63.52367188 83.50210938 64.30859375 82.73046875 C65.88842701 81.16970793 67.44741612 79.58786988 69 78 C70.02083333 78.875 71.04166667 79.75 72.0625 80.625 C73.02929688 81.44291016 73.02929688 81.44291016 74.015625 82.27734375 C75.26412672 83.36118088 76.48768447 84.47515053 77.671875 85.62890625 C82.27338894 90.0003445 86.85977334 91.59157779 93 93 C91.35360573 97.2233592 88.23072109 100.07210536 85.0625 103.1875 C84.48201904 103.76121338 83.90153809 104.33492676 83.3034668 104.92602539 C67.71235749 120.15093631 51.89040839 130.29128461 29.52612305 130.31469727 C10.33571949 129.94860875 -6.09809047 121.15008308 -19.40234375 107.54296875 C-31.70105349 93.52033731 -37.93194998 76.56330764 -37.28125 57.921875 C-35.5373543 33.60421834 -19.71515968 17.85417581 -3.55859375 1.328125 C-2 0 -2 0 0 0 Z " fill="#1C3068" transform="translate(37,62)"/>
<path d="M0 0 C13.95148639 10.81675575 24.3318505 26.08605452 27.66796875 43.58984375 C29.78154184 61.32728064 26.80890051 77.81925387 15.94140625 92.37109375 C8.38596928 101.581372 0.05942004 111.13023874 -8.93359375 118.93359375 C-9.59359375 118.93359375 -10.25359375 118.93359375 -10.93359375 118.93359375 C-10.95845357 114.3620645 -10.97652901 109.79057528 -10.98852539 105.21899414 C-10.99353059 103.66625279 -11.00033676 102.11351609 -11.0090332 100.56079102 C-11.02126682 98.31916143 -11.02686032 96.07759457 -11.03125 93.8359375 C-11.03641129 93.15023178 -11.04157257 92.46452606 -11.04689026 91.75804138 C-11.04762266 85.35673217 -11.02380719 79.71399899 -7.05859375 74.49609375 C-0.86169391 65.60294663 0.2164826 57.84257036 -0.93359375 46.93359375 C-3.80299062 35.27580261 -11.61238926 26.26958892 -21.7734375 20.1171875 C-22.48628906 19.72660156 -23.19914062 19.33601563 -23.93359375 18.93359375 C-24.53300781 18.59457031 -25.13242188 18.25554688 -25.75 17.90625 C-33.20731948 14.41113482 -42.63459074 14.71085249 -50.39453125 16.91796875 C-54.47345909 18.54953988 -57.9412018 19.98678871 -61.14453125 23.04296875 C-68.74017123 28.19183394 -80.67561724 26.05207446 -89.55859375 25.99609375 C-90.95833172 25.99106572 -92.35807145 25.98650513 -93.7578125 25.98242188 C-97.14978544 25.97072542 -100.54166608 25.95433461 -103.93359375 25.93359375 C-102.59871115 22.97181036 -101.13226639 20.87606331 -98.84375 18.578125 C-97.92275513 17.65084595 -97.92275513 17.65084595 -96.9831543 16.70483398 C-95.99955933 15.73525757 -95.99955933 15.73525757 -94.99609375 14.74609375 C-94.32167236 14.07843994 -93.64725098 13.41078613 -92.95239258 12.72290039 C-66.20759178 -13.4761529 -32.26534461 -22.72751971 0 0 Z " fill="#1C3068" transform="translate(163.93359375,13.06640625)"/>
</svg>
