<svg width="100" height="100" viewBox="0 0 100 100" fill="none" xmlns="http://www.w3.org/2000/svg">
<path d="M82.9405 36.5998L70.6297 29.4547C68.5538 28.2478 65.9468 29.7444 65.9468 32.1583V50.2624L57.2085 45.2415C52.5256 42.538 46.7323 42.538 42.0493 45.2415L33.3111 50.2624V32.11C33.3111 29.6961 30.7041 28.2478 28.6281 29.4064L16.3173 36.5998C14.869 37.4205 14 38.9654 14 40.6069V57.6489C14 58.8558 14.2897 59.9662 14.869 60.9801C15.4483 61.9939 16.2208 62.8629 17.2346 63.5388L23.6073 67.5941L28.4833 70.6839C31.4282 72.5667 35.1456 72.3736 37.9457 70.2977L38.332 70.008C38.332 70.008 38.3802 69.9597 38.4285 69.9114L45.7667 64.3112C47.8909 62.6698 51.4152 62.6698 53.5877 64.3112L60.8776 69.8632L61.3121 70.2011C64.064 72.277 67.8296 72.4219 70.7746 70.5873L75.6506 67.4975L82.0233 63.4422C83.0371 62.8146 83.8578 61.8973 84.3889 60.8835C84.9199 59.8697 85.2579 58.7593 85.2579 57.5523V40.5586C85.2579 38.9171 84.3889 37.3723 82.9405 36.5515V36.5998Z" fill="url(#paint0_linear_13_58)"/>
<path d="M66.0433 61.2697V67.401C66.0433 69.2838 64.6916 70.8287 63.0501 70.8287C61.4087 70.8287 61.6018 70.4907 60.8294 69.9114L53.5394 64.3112C51.4152 62.6698 47.8909 62.6698 45.7184 64.3112L38.3802 69.9114C37.6561 70.4425 37.1733 70.6356 36.4974 70.6356C34.8077 70.6356 33.2628 69.3804 33.2628 67.3527V61.2697L43.739 54.5108C47.3116 52.1935 51.9463 52.1935 55.5188 54.5108L66.0433 61.1249V61.2697Z" fill="url(#paint1_linear_13_58)"/>
<path d="M65.9468 50.2141V61.3662L55.5671 54.7039C51.9945 52.3866 47.4082 52.3866 43.7873 54.7039L33.3111 61.3662V50.2141L42.0493 45.1932C46.7323 42.4896 52.4773 42.4896 57.2085 45.1932L65.9468 50.2141Z" fill="url(#paint2_linear_13_58)"/>
<path d="M85.2579 40.6069V57.6006C85.2579 58.8076 84.9682 59.9179 84.3889 60.9318L65.9468 50.2141V32.11C65.9468 29.6961 68.5538 28.2478 70.6297 29.4064L82.9406 36.5515C84.3889 37.3723 85.2579 38.9171 85.2579 40.5586V40.6069Z" fill="url(#paint3_linear_13_58)"/>
<path d="M33.3111 32.11V50.2624L14.869 60.9801C14.2897 59.9663 14 58.8559 14 57.6489V40.6069C14 38.9655 14.869 37.4206 16.3173 36.5999L28.6281 29.4548C30.7041 28.2478 33.3111 29.7444 33.3111 32.1583V32.11Z" fill="url(#paint4_linear_13_58)"/>
<path d="M62.8088 70.5873C64.4502 70.5873 65.9951 69.2838 65.9951 67.4493V61.318L75.7472 67.5458L70.8229 70.6839C67.8779 72.5667 64.1123 72.4219 61.3604 70.2976L60.8777 69.9114C61.5535 70.3942 62.1329 70.5873 62.8088 70.5873Z" fill="url(#paint5_linear_13_58)"/>
<path d="M84.3889 60.9801C83.8578 61.9939 83.0371 62.8629 82.0233 63.5388L75.6506 67.5941L65.9468 61.4146V50.2625L84.3889 61.0284V60.9801Z" fill="url(#paint6_linear_13_58)"/>
<path d="M33.3111 67.4492C33.3111 69.332 34.856 70.7804 36.4974 70.5872C37.2216 70.4907 37.8009 70.3941 38.3802 69.9596L37.9457 70.2976C35.1939 72.3735 31.4282 72.5184 28.4833 70.6838L23.6073 67.594L33.3111 61.3662V67.4492Z" fill="url(#paint7_linear_13_58)"/>
<path d="M33.3111 50.2141V61.3663L23.6073 67.5941L17.2346 63.5388C16.2208 62.9111 15.4001 61.9939 14.869 60.98L33.3111 50.2624V50.2141Z" fill="url(#paint8_linear_13_58)"/>
<defs>
<linearGradient id="paint0_linear_13_58" x1="52.3325" y1="75.7048" x2="46.7323" y2="20.7165" gradientUnits="userSpaceOnUse">
<stop stop-color="#75BE2C"/>
<stop offset="0.9" stop-color="#9DC03B"/>
</linearGradient>
<linearGradient id="paint1_linear_13_58" x1="49.6772" y1="52.7728" x2="49.6772" y2="70.7804" gradientUnits="userSpaceOnUse">
<stop stop-color="#238D37"/>
<stop offset="0.9" stop-color="#35537F"/>
</linearGradient>
<linearGradient id="paint2_linear_13_58" x1="47.7461" y1="43.4552" x2="50.5462" y2="61.8007" gradientUnits="userSpaceOnUse">
<stop stop-color="#67D84D"/>
<stop offset="1" stop-color="#348522"/>
</linearGradient>
<linearGradient id="paint3_linear_13_58" x1="75.6023" y1="28.9719" x2="75.6023" y2="60.9318" gradientUnits="userSpaceOnUse">
<stop stop-color="#E4D00A"/>
<stop offset="0.6" stop-color="#C4D132"/>
</linearGradient>
<linearGradient id="paint4_linear_13_58" x1="23.6555" y1="28.972" x2="23.6555" y2="60.9318" gradientUnits="userSpaceOnUse">
<stop stop-color="#E4D00A"/>
<stop offset="0.6" stop-color="#C4D132"/>
</linearGradient>
<linearGradient id="paint5_linear_13_58" x1="68.3124" y1="61.318" x2="68.3124" y2="71.9874" gradientUnits="userSpaceOnUse">
<stop stop-color="#8AB11B"/>
<stop offset="1" stop-color="#6EAF02"/>
</linearGradient>
<linearGradient id="paint6_linear_13_58" x1="76.0368" y1="48.4279" x2="73.8161" y2="66.3872" gradientUnits="userSpaceOnUse">
<stop stop-color="#75BE2C"/>
<stop offset="0.9" stop-color="#9DC03B"/>
</linearGradient>
<linearGradient id="paint7_linear_13_58" x1="30.9937" y1="61.3662" x2="30.9937" y2="71.939" gradientUnits="userSpaceOnUse">
<stop stop-color="#8AB11B"/>
<stop offset="1" stop-color="#6EAF02"/>
</linearGradient>
<linearGradient id="paint8_linear_13_58" x1="25.3935" y1="48.5244" x2="23.1728" y2="70.1045" gradientUnits="userSpaceOnUse">
<stop stop-color="#75BE2C"/>
<stop offset="0.9" stop-color="#9DC03B"/>
</linearGradient>
</defs>
</svg>
